<?xml version="1.0" standalone="no"?>
<!DOCTYPE svg PUBLIC "-//W3C//DTD SVG 20010904//EN"
 "http://www.w3.org/TR/2001/REC-SVG-20010904/DTD/svg10.dtd">
<svg version="1.0" xmlns="http://www.w3.org/2000/svg"
 width="1587.000000pt" height="2245.000000pt" viewBox="0 0 1587.000000 2245.000000"
 preserveAspectRatio="xMidYMid meet">

<g transform="translate(0.000000,2245.000000) scale(0.100000,-0.100000)"
fill="#ffffff" stroke="none">
<path d="M8007 17569 c-264 -39 -524 -156 -694 -313 l-75 -70 -211 -1 c-282
-3 -437 -32 -624 -120 -200 -94 -314 -199 -496 -453 -356 -499 -684 -1189
-823 -1730 -55 -216 -76 -356 -80 -553 -2 -117 -10 -215 -24 -290 -51 -293
-74 -633 -52 -795 6 -44 45 -197 86 -341 101 -353 146 -588 146 -758 -1 -188
-70 -351 -250 -585 -244 -319 -301 -397 -359 -494 -81 -135 -101 -196 -108
-326 -6 -124 11 -241 58 -387 63 -196 189 -436 286 -543 29 -32 53 -60 53 -63
0 -11 -131 -87 -190 -110 -143 -56 -235 -54 -392 9 -100 40 -202 54 -250 35
-27 -10 -28 -14 -28 -79 0 -125 42 -227 130 -312 62 -62 137 -102 249 -135
l74 -22 -103 -13 c-120 -15 -117 -19 33 -57 124 -31 286 -35 415 -10 94 19
268 68 328 93 38 16 39 16 23 -2 -135 -157 -207 -267 -258 -396 -47 -117 -63
-184 -68 -298 -6 -129 10 -198 73 -320 117 -226 332 -436 681 -666 158 -105
205 -153 261 -263 35 -71 37 -80 37 -170 0 -83 -4 -104 -27 -154 -54 -116
-142 -209 -448 -476 -353 -309 -460 -422 -490 -515 -31 -96 21 -241 129 -357
l59 -64 -28 60 c-60 129 -77 268 -43 346 30 66 139 162 312 272 l153 97 -4
-187 c-3 -149 -7 -194 -20 -218 -9 -16 -79 -93 -155 -170 -77 -77 -159 -166
-182 -199 -180 -244 -281 -553 -237 -727 42 -166 155 -328 411 -585 l190 -192
89 -6 c48 -4 90 -5 92 -3 3 2 -15 17 -38 32 -63 42 -164 141 -214 212 -114
158 -184 394 -184 613 l1 55 37 -70 c99 -186 225 -312 360 -362 l53 -19 -59
-55 c-59 -55 -115 -89 -146 -89 -26 0 -19 -15 30 -60 86 -79 184 -104 295 -75
35 9 100 26 144 37 95 23 247 95 293 137 38 35 38 33 11 -55 -29 -94 -63 -157
-111 -210 -22 -24 -37 -44 -33 -44 23 0 270 77 321 100 71 32 126 94 177 197
17 35 34 63 38 63 3 0 11 -12 18 -27 l13 -28 30 55 c16 30 26 46 22 35 -4 -11
-20 -56 -35 -101 -25 -69 -28 -90 -23 -143 4 -33 10 -61 14 -61 12 0 138 150
208 248 37 52 110 140 164 197 155 168 262 347 306 515 19 69 21 73 30 49 26
-66 35 -121 34 -214 -1 -131 -35 -266 -102 -401 -66 -133 -129 -222 -242 -339
-90 -95 -92 -97 -80 -127 22 -60 78 -142 137 -202 131 -133 303 -181 509 -141
116 22 118 28 13 49 -227 46 -370 125 -418 231 -32 68 -28 75 95 190 268 252
455 507 501 681 41 159 0 401 -105 622 -65 135 -107 204 -196 318 l-73 93 59
114 c70 133 133 314 156 447 35 204 -8 484 -129 821 l-34 96 32 64 c92 183
184 465 206 631 17 134 3 239 -77 561 -53 210 -67 283 -71 370 -3 60 -2 107 3
107 5 0 22 -63 37 -140 37 -186 89 -371 123 -445 l29 -60 6 330 c3 182 9 389
14 460 6 113 4 144 -14 231 -56 271 -164 487 -313 629 -77 74 -130 152 -164
242 -29 76 -42 203 -26 243 l11 25 1 -25 c2 -87 83 -291 133 -338 l25 -23 5
193 c4 138 10 210 22 253 20 70 15 135 -17 228 -26 77 -90 207 -132 267 -30
44 -31 47 -34 187 l-4 142 -63 55 c-197 173 -550 628 -688 886 -68 127 -146
409 -222 802 l-27 137 46 193 c25 106 58 257 73 336 l27 143 51 14 c86 25 183
35 402 42 l212 6 55 46 c30 25 72 67 93 93 20 26 39 45 41 43 7 -7 -42 -92
-80 -137 l-39 -48 49 0 c45 0 53 4 84 38 37 41 81 103 117 167 l23 40 -28 -35
c-45 -56 -146 -160 -156 -160 -4 0 8 21 28 47 32 42 94 153 94 169 0 3 -33 3
-72 0 -584 -49 -738 -66 -808 -90 l-37 -13 -7 121 c-24 474 -19 604 31 776 41
142 104 243 200 319 69 56 139 85 264 111 242 51 416 154 514 305 18 28 35 60
39 73 4 12 11 22 14 22 4 0 32 -42 62 -92 361 -613 859 -1175 1227 -1386 l65
-37 -84 -8 c-186 -17 -563 -58 -566 -62 -8 -8 161 -174 188 -185 26 -11 53 -8
187 19 191 39 420 64 488 55 71 -9 199 -47 279 -83 38 -18 71 -30 73 -27 2 2
-41 39 -96 82 -55 44 -100 81 -100 84 -1 3 24 3 56 1 31 -1 98 5 149 14 102
20 211 17 260 -6 81 -38 104 -247 59 -525 -17 -108 -57 -250 -87 -307 -26 -52
-141 -167 -188 -189 l-35 -17 -23 -233 c-34 -342 -53 -444 -105 -553 -40 -83
-128 -230 -255 -430 -51 -80 -51 -80 -41 -130 51 -246 135 -611 154 -667 47
-140 154 -271 283 -347 37 -22 371 -195 742 -384 l675 -345 12 67 c6 36 15
109 19 162 17 232 -81 539 -285 893 -81 140 -121 225 -121 256 0 14 21 57 46
95 86 132 137 262 157 396 20 141 -14 283 -106 444 -22 39 -53 93 -68 120
l-28 51 54 125 c107 251 176 490 195 676 25 259 -64 518 -257 748 l-60 71 -7
166 c-11 282 -46 517 -95 649 -32 83 -137 256 -347 567 l-188 277 -72 185
c-122 315 -228 537 -347 726 -276 439 -550 632 -972 683 -103 13 -332 13 -418
0z m-2873 -6204 c-55 -256 -58 -512 -9 -710 21 -83 86 -212 136 -269 l42 -47
-6 -74 c-11 -128 -69 -253 -165 -357 -64 -68 -177 -153 -192 -143 -14 8 -113
208 -175 349 -144 333 -181 586 -109 761 61 150 209 334 393 487 52 43 96 77
97 75 1 -1 -4 -34 -12 -72z m2204 -4587 c161 -249 198 -391 136 -514 -30 -60
-138 -177 -158 -171 -19 6 -83 144 -103 220 -24 96 -24 295 1 386 18 67 55
171 61 171 1 0 30 -42 63 -92z m-663 -1101 c120 -85 247 -205 282 -265 38 -64
35 -114 -10 -204 -32 -64 -140 -208 -156 -208 -3 0 -6 44 -7 98 0 84 -5 111
-37 203 -36 107 -124 293 -191 404 -58 97 -57 96 119 -28z m-847 -295 c35 -88
62 -221 62 -296 0 -70 -25 -169 -58 -230 -15 -27 -53 -77 -85 -109 -66 -68
-71 -67 -111 18 -83 173 -42 405 112 647 20 31 40 54 44 52 3 -2 20 -39 36
-82z m1613 -60 c106 -242 104 -492 -7 -702 -19 -36 -43 -76 -54 -90 -20 -25
-20 -25 0 23 96 231 91 529 -15 899 -13 46 34 -35 76 -130z"/>
</g>
</svg>
